<svg width="157" height="31" viewBox="0 0 157 31" fill="none" xmlns="http://www.w3.org/2000/svg">
<g clip-path="url(#clip0_911_5617)">
<path d="M37.9292 4.14923V2.94575H44.6583V4.14923H41.9199V15.2318H40.6676V4.14923H37.9292Z" fill="black"/>
<path d="M47.9478 2.94923H49.1757V15.2353H47.9478V2.94923Z" fill="black"/>
<path d="M53.6929 15.2318V2.94575H53.9615L62.1382 12.3643V2.94575H63.3487V15.2318H63.0731L54.9626 5.92831V15.2318H53.6929Z" fill="black"/>
<path d="M67.0605 2.94923H68.4733L71.6164 8.01435L74.7106 2.94923H76.1303L72.2373 9.36435V15.2353H71.0268V9.36435L67.0605 2.94923Z" fill="black"/>
<path d="M91.2839 5.22714L90.3141 5.97017C89.7804 5.27598 89.1386 4.74575 88.3886 4.38644C87.6386 4.02714 86.8188 3.84924 85.9223 3.84924C84.942 3.84924 84.0351 4.08296 83.2013 4.55389C82.3676 5.02482 81.7188 5.65621 81.2583 6.44807C80.7979 7.24342 80.5676 8.13296 80.5676 9.12366C80.5676 10.6202 81.0804 11.8725 82.1095 12.8737C83.1351 13.8748 84.4327 14.3771 85.9955 14.3771C87.7153 14.3771 89.156 13.7039 90.3141 12.3574L91.2839 13.0934C90.6734 13.8748 89.906 14.4748 88.992 14.9004C88.0781 15.326 87.0525 15.5388 85.9223 15.5388C83.7734 15.5388 82.0781 14.8237 80.8362 13.3934C79.7967 12.1864 79.2734 10.7283 79.2734 9.019C79.2734 7.219 79.9048 5.70854 81.1641 4.48064C82.4234 3.25273 84.0037 2.63877 85.9048 2.63877C87.0525 2.63877 88.0886 2.86551 89.013 3.319C89.9374 3.77249 90.6944 4.40738 91.2839 5.22714Z" fill="black"/>
<path d="M95.4243 2.94923H96.6522V8.10155H102.907V2.94923H104.135V15.2353H102.907V9.30505H96.6522V15.2353H95.4243V2.94923Z" fill="black"/>
<path d="M108.827 2.94923H115.866V4.15272H110.055V8.00388H115.817V9.20737H110.055V14.0353H115.817V15.2388H108.827V2.95272V2.94923Z" fill="black"/>
<path d="M129.973 13.8992L131.794 16.2016H130.284L129.031 14.6144C128.027 15.2318 126.9 15.5423 125.641 15.5423C123.823 15.5423 122.288 14.9178 121.036 13.6725C119.784 12.4237 119.159 10.9167 119.159 9.14807C119.159 7.969 119.445 6.87366 120.017 5.86203C120.589 4.8504 121.371 4.06203 122.358 3.49342C123.345 2.92482 124.43 2.64226 125.609 2.64226C127.43 2.64226 128.962 3.26319 130.21 4.50854C131.459 5.75389 132.084 7.2818 132.084 9.09924C132.084 10.0446 131.913 10.9097 131.571 11.6946C131.229 12.4795 130.695 13.2155 129.97 13.9027L129.973 13.8992ZM129.213 12.9399C130.284 11.8969 130.817 10.6132 130.817 9.08528C130.817 8.10854 130.591 7.22598 130.137 6.43761C129.684 5.64924 129.045 5.01784 128.222 4.54342C127.399 4.06901 126.53 3.83179 125.616 3.83179C124.702 3.83179 123.83 4.069 123.017 4.53993C122.205 5.01086 121.57 5.64923 121.113 6.45505C120.656 7.26086 120.429 8.15389 120.429 9.1411C120.429 10.6027 120.931 11.8341 121.939 12.8388C122.948 13.8434 124.165 14.3458 125.588 14.3458C126.562 14.3458 127.455 14.1085 128.26 13.6341L125.525 10.1597H127.015L129.209 12.933L129.213 12.9399Z" fill="black"/>
<path d="M136.312 2.94923H137.54V10.3655C137.54 11.2446 137.557 11.7923 137.588 12.012C137.651 12.4969 137.791 12.9016 138.014 13.226C138.237 13.5504 138.579 13.826 139.039 14.0457C139.503 14.2655 139.967 14.3771 140.435 14.3771C140.839 14.3771 141.23 14.2899 141.603 14.119C141.977 13.9481 142.287 13.7074 142.538 13.4004C142.789 13.0934 142.971 12.7237 143.09 12.2911C143.173 11.9806 143.215 11.3388 143.215 10.3725V2.95621H144.443V10.3725C144.443 11.4678 144.335 12.3574 144.122 13.0306C143.909 13.7074 143.48 14.2969 142.835 14.7957C142.193 15.2981 141.415 15.5457 140.501 15.5457C139.51 15.5457 138.663 15.3085 137.955 14.8376C137.246 14.3632 136.776 13.7388 136.535 12.9574C136.385 12.4795 136.308 11.6143 136.308 10.369V2.95272L136.312 2.94923Z" fill="black"/>
<path d="M149.17 2.94923H156.209V4.15272H150.398V8.00388H156.161V9.20737H150.398V14.0353H156.161V15.2388H149.17V2.95272V2.94923Z" fill="black"/>
<path d="M37.9292 26.5167L38.4071 26.2306C38.7455 26.8516 39.1327 27.162 39.5757 27.162C39.7641 27.162 39.942 27.1167 40.1094 27.0295C40.2769 26.9423 40.4025 26.8237 40.4897 26.6737C40.5769 26.5271 40.6187 26.3702 40.6187 26.2027C40.6187 26.0144 40.5559 25.8295 40.4269 25.6481C40.249 25.3969 39.928 25.0969 39.4606 24.7446C38.9897 24.3888 38.6966 24.1341 38.585 23.9737C38.3862 23.7085 38.285 23.419 38.285 23.112C38.285 22.8678 38.3443 22.6446 38.4629 22.4423C38.5815 22.2399 38.7455 22.083 38.9583 21.9644C39.1711 21.8492 39.4048 21.7899 39.6525 21.7899C39.9176 21.7899 40.1652 21.8562 40.399 21.9888C40.6292 22.1213 40.8734 22.362 41.1315 22.7144L40.6711 23.0632C40.4583 22.7806 40.2769 22.5958 40.1304 22.5085C39.9838 22.4213 39.8164 22.376 39.642 22.376C39.4152 22.376 39.2304 22.4457 39.0838 22.5818C38.9408 22.7213 38.8676 22.8888 38.8676 23.0911C38.8676 23.2132 38.892 23.3318 38.9443 23.4469C38.9966 23.562 39.0873 23.6876 39.2234 23.8237C39.2966 23.8934 39.5408 24.0818 39.9525 24.3853C40.4408 24.7446 40.7757 25.0655 40.9571 25.3481C41.1385 25.6306 41.2292 25.9097 41.2292 26.1958C41.2292 26.6039 41.0757 26.9597 40.7652 27.2597C40.4548 27.5597 40.078 27.7132 39.6315 27.7132C39.2897 27.7132 38.9792 27.6225 38.7001 27.4376C38.4211 27.2562 38.1664 26.9492 37.9292 26.5202V26.5167Z" fill="black"/>
<path d="M43.6465 21.9295H46.8767V22.4806H44.2116V24.2457H46.8558V24.7969H44.2116V27.012H46.8558V27.5632H43.65V21.926L43.6465 21.9295Z" fill="black"/>
<path d="M49.0781 21.9295H52.3084V22.4806H49.6432V24.2457H52.2874V24.7969H49.6432V27.012H52.2874V27.5632H49.0816V21.926L49.0781 21.9295Z" fill="black"/>
<path d="M54.5059 27.5667V21.9295H55.6745C56.5187 21.9295 57.1291 21.9957 57.5093 22.1318C58.057 22.3236 58.4826 22.655 58.7896 23.1295C59.0966 23.6004 59.25 24.1655 59.25 24.8178C59.25 25.383 59.128 25.8783 58.8838 26.3074C58.6396 26.7364 58.3221 27.0539 57.9349 27.2562C57.5442 27.462 57 27.5632 56.2989 27.5632H54.5059V27.5667ZM55.0466 27.033H55.6989C56.4768 27.033 57.0175 26.9841 57.321 26.8864C57.7466 26.7504 58.078 26.4992 58.3221 26.1434C58.5663 25.7841 58.6849 25.3481 58.6849 24.8283C58.6849 24.3085 58.5524 23.8202 58.2907 23.4364C58.0291 23.0492 57.6593 22.7876 57.1919 22.6446C56.8396 22.5364 56.257 22.4841 55.4477 22.4841H55.05V27.0364L55.0466 27.033Z" fill="black"/>
<path d="M65.5674 21.0957H66.1151V28.3969H65.5674V21.0957Z" fill="black"/>
<path d="M72.1323 26.5167L72.6102 26.2306C72.9486 26.8516 73.3358 27.162 73.7788 27.162C73.9672 27.162 74.1451 27.1167 74.3126 27.0295C74.48 26.9423 74.6056 26.8237 74.6928 26.6737C74.78 26.5237 74.8219 26.3702 74.8219 26.2027C74.8219 26.0144 74.7591 25.8295 74.63 25.6481C74.4521 25.3969 74.1312 25.0969 73.6637 24.7446C73.1928 24.3888 72.8998 24.1341 72.7881 23.9737C72.5893 23.7085 72.4881 23.419 72.4881 23.112C72.4881 22.8678 72.5474 22.6446 72.666 22.4423C72.7846 22.2399 72.9486 22.083 73.1614 21.9644C73.3742 21.8492 73.6079 21.7899 73.8556 21.7899C74.1207 21.7899 74.3684 21.8562 74.6021 21.9888C74.8323 22.1213 75.0765 22.362 75.3346 22.7144L74.8742 23.0632C74.6614 22.7806 74.48 22.5958 74.3335 22.5085C74.1835 22.4178 74.023 22.376 73.8451 22.376C73.6184 22.376 73.4335 22.4457 73.287 22.5818C73.144 22.7213 73.0707 22.8888 73.0707 23.0911C73.0707 23.2132 73.0951 23.3318 73.1474 23.4469C73.1998 23.562 73.2905 23.6876 73.4265 23.8237C73.4998 23.8934 73.7439 24.0818 74.1556 24.3853C74.6439 24.7446 74.9788 25.0655 75.1602 25.3481C75.3416 25.6306 75.4323 25.9097 75.4323 26.1958C75.4323 26.6039 75.2753 26.9597 74.9684 27.2597C74.6579 27.5597 74.2812 27.7132 73.8347 27.7132C73.4928 27.7132 73.1823 27.6225 72.9033 27.4376C72.6242 27.2562 72.3695 26.9492 72.1323 26.5202V26.5167Z" fill="black"/>
<path d="M83.0965 22.976L82.6535 23.3179C82.4093 22.9969 82.1128 22.7562 81.7709 22.5923C81.4256 22.4283 81.0488 22.3446 80.6372 22.3446C80.1872 22.3446 79.7721 22.4527 79.3884 22.669C79.0046 22.8853 78.7081 23.1748 78.4988 23.5376C78.286 23.9004 78.1814 24.312 78.1814 24.7655C78.1814 25.4527 78.4151 26.0248 78.8895 26.4853C79.3605 26.9458 79.9535 27.176 80.6721 27.176C81.4605 27.176 82.1233 26.8655 82.6535 26.2481L83.0965 26.5865C82.814 26.9458 82.4651 27.2213 82.0465 27.4167C81.6244 27.612 81.157 27.7097 80.6372 27.7097C79.65 27.7097 78.8721 27.3818 78.3035 26.726C77.8256 26.1713 77.5884 25.5016 77.5884 24.7202C77.5884 23.8934 77.8779 23.1992 78.457 22.6376C79.0361 22.0725 79.7616 21.7934 80.6302 21.7934C81.157 21.7934 81.6314 21.8981 82.057 22.1039C82.4826 22.3132 82.8279 22.6027 83.1 22.9795L83.0965 22.976Z" fill="black"/>
<path d="M87.7533 21.9295L90.3801 27.5667H89.7731L88.887 25.7109H86.4591L85.5801 27.5667H84.9521L87.6138 21.9295H87.7533ZM87.6835 23.126L86.7173 25.1667H88.6428L87.6835 23.126Z" fill="black"/>
<path d="M92.4766 21.9295H93.0382V27.0225H95.208V27.5667H92.4766V21.9295Z" fill="black"/>
<path d="M97.3291 21.9295H100.559V22.4806H97.8942V24.2457H100.538V24.7969H97.8942V27.012H100.538V27.5632H97.3326V21.926L97.3291 21.9295Z" fill="black"/>
<path d="M106.758 21.0957H107.306V28.3969H106.758V21.0957Z" fill="black"/>
<path d="M113.323 26.5167L113.801 26.2306C114.14 26.8516 114.527 27.162 114.97 27.162C115.158 27.162 115.336 27.1167 115.503 27.0295C115.671 26.9423 115.797 26.8237 115.884 26.6737C115.971 26.5237 116.013 26.3702 116.013 26.2027C116.013 26.0144 115.95 25.8295 115.821 25.6481C115.643 25.3969 115.322 25.0969 114.855 24.7446C114.384 24.3888 114.091 24.1341 113.979 23.9737C113.78 23.7085 113.679 23.419 113.679 23.112C113.679 22.8678 113.738 22.6446 113.857 22.4423C113.976 22.2399 114.14 22.083 114.352 21.9644C114.565 21.8492 114.799 21.7899 115.046 21.7899C115.312 21.7899 115.559 21.8562 115.793 21.9888C116.023 22.1213 116.267 22.362 116.526 22.7144L116.065 23.0632C115.852 22.7806 115.671 22.5958 115.524 22.5085C115.374 22.4178 115.214 22.376 115.036 22.376C114.809 22.376 114.624 22.4457 114.478 22.5818C114.335 22.7213 114.262 22.8888 114.262 23.0911C114.262 23.2132 114.286 23.3318 114.338 23.4469C114.391 23.562 114.481 23.6876 114.617 23.8237C114.691 23.8934 114.935 24.0818 115.347 24.3853C115.835 24.7446 116.17 25.0655 116.351 25.3481C116.533 25.6306 116.623 25.9097 116.623 26.1958C116.623 26.6039 116.466 26.9597 116.159 27.2597C115.849 27.5597 115.472 27.7132 115.026 27.7132C114.684 27.7132 114.373 27.6225 114.094 27.4376C113.815 27.2562 113.56 26.9492 113.323 26.5202V26.5167Z" fill="black"/>
<path d="M119.055 21.9295H119.616V25.3306C119.616 25.7353 119.623 25.9864 119.641 26.0841C119.669 26.3074 119.735 26.4923 119.836 26.6423C119.937 26.7923 120.094 26.9178 120.307 27.019C120.52 27.1202 120.733 27.169 120.946 27.169C121.13 27.169 121.312 27.1306 121.483 27.0504C121.654 26.9702 121.797 26.862 121.912 26.7225C122.027 26.583 122.111 26.412 122.163 26.2132C122.201 26.0702 122.219 25.7771 122.219 25.3306V21.9295H122.78V25.3306C122.78 25.833 122.732 26.2411 122.634 26.5516C122.536 26.862 122.341 27.1306 122.044 27.3609C121.751 27.5911 121.392 27.7062 120.973 27.7062C120.52 27.7062 120.129 27.5981 119.805 27.3818C119.48 27.1655 119.264 26.876 119.153 26.5202C119.083 26.3004 119.048 25.9062 119.048 25.3341V21.933L119.055 21.9295Z" fill="black"/>
<path d="M130.646 22.976L130.203 23.3179C129.959 22.9969 129.663 22.7562 129.321 22.5923C128.975 22.4283 128.599 22.3446 128.187 22.3446C127.737 22.3446 127.322 22.4527 126.938 22.669C126.554 22.8853 126.258 23.1748 126.049 23.5376C125.836 23.9004 125.731 24.312 125.731 24.7655C125.731 25.4527 125.965 26.0248 126.439 26.4853C126.91 26.9458 127.503 27.176 128.222 27.176C129.01 27.176 129.673 26.8655 130.203 26.2481L130.646 26.5865C130.364 26.9458 130.015 27.2213 129.596 27.4167C129.174 27.612 128.707 27.7097 128.187 27.7097C127.2 27.7097 126.422 27.3818 125.853 26.726C125.375 26.1713 125.138 25.5016 125.138 24.7202C125.138 23.8934 125.428 23.1992 126.007 22.6376C126.586 22.0725 127.311 21.7934 128.18 21.7934C128.707 21.7934 129.181 21.8981 129.607 22.1039C130.032 22.3132 130.378 22.6027 130.65 22.9795L130.646 22.976Z" fill="black"/>
<path d="M138.251 22.976L137.808 23.3179C137.564 22.9969 137.268 22.7562 136.926 22.5923C136.58 22.4283 136.204 22.3446 135.792 22.3446C135.342 22.3446 134.927 22.4527 134.543 22.669C134.159 22.8853 133.863 23.1748 133.654 23.5376C133.441 23.9004 133.336 24.312 133.336 24.7655C133.336 25.4527 133.57 26.0248 134.044 26.4853C134.515 26.9458 135.108 27.176 135.827 27.176C136.615 27.176 137.278 26.8655 137.808 26.2481L138.251 26.5865C137.969 26.9458 137.62 27.2213 137.201 27.4167C136.779 27.612 136.312 27.7097 135.792 27.7097C134.805 27.7097 134.027 27.3818 133.458 26.726C132.98 26.1713 132.743 25.5016 132.743 24.7202C132.743 23.8934 133.033 23.1992 133.612 22.6376C134.191 22.0725 134.916 21.7934 135.785 21.7934C136.312 21.7934 136.786 21.8981 137.212 22.1039C137.637 22.3132 137.983 22.6027 138.255 22.9795L138.251 22.976Z" fill="black"/>
<path d="M140.606 21.9295H143.836V22.4806H141.171V24.2457H143.815V24.7969H141.171V27.012H143.815V27.5632H140.609V21.926L140.606 21.9295Z" fill="black"/>
<path d="M146.037 21.9295H149.267V22.4806H146.602V24.2457H149.246V24.7969H146.602V27.012H149.246V27.5632H146.041V21.926L146.037 21.9295Z" fill="black"/>
<path d="M151.465 27.5667V21.9295H152.634C153.478 21.9295 154.088 21.9957 154.468 22.1318C155.016 22.3236 155.442 22.655 155.749 23.1295C156.056 23.6004 156.209 24.1655 156.209 24.8178C156.209 25.383 156.087 25.8783 155.843 26.3074C155.599 26.7364 155.281 27.0539 154.894 27.2562C154.503 27.462 153.959 27.5632 153.254 27.5632H151.461L151.465 27.5667ZM152.006 27.033H152.658C153.436 27.033 153.977 26.9841 154.28 26.8864C154.706 26.7504 155.037 26.4992 155.281 26.1434C155.525 25.7841 155.644 25.3481 155.644 24.8283C155.644 24.3085 155.511 23.8202 155.25 23.4364C154.988 23.0492 154.618 22.7876 154.151 22.6446C153.799 22.5364 153.216 22.4841 152.407 22.4841H152.009V27.0364L152.006 27.033Z" fill="black"/>
<path d="M24.6765 19.6481H17.9614V26.3632H24.6765V19.6481Z" fill="#2A3B8F"/>
<path d="M17.9615 15.0016H13.3149V19.6481H17.9615V15.0016Z" fill="#2A3B8F"/>
<path d="M13.3186 19.6516H11.3232V21.6469H13.3186V19.6516Z" fill="#2A3B8F"/>
<path d="M21.0486 11.9144H17.9614V15.0016H21.0486V11.9144Z" fill="#2A3B8F"/>
<path d="M16.4616 26.3946C8.06156 26.3946 4.2697 22.962 4.2697 15.4202C4.2697 7.87831 7.69877 4.66203 15.6592 4.45622V0.531799C5.46273 0.810869 0.341797 5.89691 0.341797 15.4202C0.341797 24.9434 6.16738 30.3225 16.5523 30.3225H17.9651V26.3946H16.4616Z" fill="#2A3B8F"/>
<path d="M24.6801 4.44575V19.6481H28.5906L28.5627 0.517838H21.3208V4.44575H24.6801Z" fill="#2A3B8F"/>
<path d="M24.6765 19.6481H17.9614V26.3911H24.6765V19.6481Z" fill="#2A3B8F"/>
<path d="M23.8952 22.3062H20.4521V25.7492H23.8952V22.3062Z" fill="white"/>
</g>
<defs>
<clipPath id="clip0_911_5617">
<rect width="156.279" height="30" fill="white" transform="translate(0 0.420166)"/>
</clipPath>
</defs>
</svg>
