<svg width="188" height="36" viewBox="0 0 188 36" fill="none" xmlns="http://www.w3.org/2000/svg">
<g clip-path="url(#clip0_911_5758)">
<path d="M45.3516 4.47446V3.03027H53.4264V4.47446H50.1404V17.7735H48.6376V4.47446H45.3516Z" fill="white"/>
<path d="M57.374 3.03516H58.8475V17.7784H57.374V3.03516Z" fill="white"/>
<path d="M64.2686 17.7735V3.03027H64.5909L74.403 14.3326V3.03027H75.8555V17.7735H75.5248L65.7923 6.60934V17.7735H64.2686Z" fill="white"/>
<path d="M80.3091 3.03516H82.0044L85.7761 9.11329L89.4891 3.03516H91.1928L86.5212 10.7333V17.7784H85.0686V10.7333L80.3091 3.03516Z" fill="white"/>
<path d="M109.377 5.76816L108.214 6.65979C107.573 5.82676 106.803 5.19048 105.903 4.75932C105.003 4.32815 104.019 4.11467 102.943 4.11467C101.767 4.11467 100.679 4.39514 99.6783 4.96025C98.6779 5.52537 97.8993 6.28304 97.3467 7.23327C96.7941 8.18769 96.5179 9.25514 96.5179 10.444C96.5179 12.2398 97.1332 13.7426 98.3681 14.944C99.5988 16.1454 101.156 16.7482 103.031 16.7482C105.095 16.7482 106.824 15.9403 108.214 14.3244L109.377 15.2077C108.645 16.1454 107.724 16.8654 106.627 17.3761C105.53 17.8868 104.3 18.1421 102.943 18.1421C100.365 18.1421 98.3304 17.284 96.8402 15.5677C95.5928 14.1193 94.9648 12.3695 94.9648 10.3184C94.9648 8.15839 95.7225 6.34584 97.2337 4.87235C98.7449 3.39886 100.641 2.66211 102.923 2.66211C104.3 2.66211 105.543 2.9342 106.652 3.47839C107.762 4.02257 108.67 4.78443 109.377 5.76816Z" fill="white"/>
<path d="M114.346 3.03516H115.82V9.21794H123.325V3.03516H124.799V17.7784H123.325V10.6621H115.82V17.7784H114.346V3.03516Z" fill="white"/>
<path d="M130.429 3.03516H138.876V4.47934H131.902V9.10073H138.818V10.5449H131.902V16.3384H138.818V17.7826H130.429V3.03934V3.03516Z" fill="white"/>
<path d="M155.805 16.1754L157.99 18.9382H156.177L154.675 17.0335C153.469 17.7744 152.117 18.147 150.606 18.147C148.425 18.147 146.583 17.3977 145.08 15.9033C143.577 14.4047 142.828 12.5963 142.828 10.474C142.828 9.05908 143.171 7.74467 143.858 6.53072C144.544 5.31676 145.482 4.37071 146.667 3.68839C147.851 3.00606 149.153 2.66699 150.568 2.66699C152.753 2.66699 154.591 3.41211 156.09 4.90653C157.588 6.40095 158.337 8.23444 158.337 10.4154C158.337 11.5498 158.132 12.5879 157.722 13.5298C157.312 14.4716 156.671 15.3549 155.801 16.1795L155.805 16.1754ZM154.892 15.0242C156.177 13.7726 156.818 12.2321 156.818 10.3986C156.818 9.22653 156.546 8.16746 156.002 7.22141C155.457 6.27537 154.691 5.51769 153.703 4.94839C152.716 4.37909 151.673 4.09444 150.576 4.09444C149.48 4.09444 148.433 4.37909 147.458 4.9442C146.483 5.50932 145.721 6.27536 145.172 7.24234C144.624 8.20931 144.352 9.28095 144.352 10.4656C144.352 12.2196 144.955 13.6972 146.164 14.9028C147.374 16.1084 148.835 16.7112 150.543 16.7112C151.711 16.7112 152.783 16.4265 153.75 15.8572L150.468 11.6879H152.255L154.888 15.0158L154.892 15.0242Z" fill="white"/>
<path d="M163.411 3.03516H164.884V11.9347C164.884 12.9896 164.905 13.6468 164.943 13.9105C165.018 14.4924 165.186 14.9779 165.454 15.3672C165.722 15.7565 166.132 16.0872 166.684 16.351C167.241 16.6147 167.798 16.7486 168.359 16.7486C168.844 16.7486 169.313 16.644 169.761 16.4389C170.209 16.2338 170.582 15.9449 170.883 15.5765C171.184 15.2082 171.402 14.7645 171.544 14.2454C171.645 13.8728 171.695 13.1026 171.695 11.9431V3.04353H173.169V11.9431C173.169 13.2575 173.039 14.3249 172.783 15.1328C172.528 15.9449 172.013 16.6524 171.239 17.251C170.469 17.8538 169.535 18.151 168.438 18.151C167.25 18.151 166.232 17.8663 165.383 17.3012C164.533 16.7319 163.968 15.9826 163.679 15.0449C163.499 14.4714 163.407 13.4333 163.407 11.9389V3.03934L163.411 3.03516Z" fill="white"/>
<path d="M178.84 3.03516H187.288V4.47934H180.314V9.10073H187.229V10.5449H180.314V16.3384H187.229V17.7826H178.84V3.03934V3.03516Z" fill="white"/>
<path d="M45.3516 31.3156L45.9251 30.9724C46.3311 31.7175 46.7957 32.0901 47.3274 32.0901C47.5534 32.0901 47.7669 32.0356 47.9678 31.931C48.1688 31.8263 48.3195 31.684 48.4241 31.504C48.5288 31.3282 48.579 31.1398 48.579 30.9389C48.579 30.7129 48.5037 30.491 48.3488 30.2733C48.1353 29.9719 47.7502 29.6119 47.1892 29.1891C46.6241 28.7622 46.2725 28.4566 46.1385 28.264C45.8999 27.9459 45.7785 27.5984 45.7785 27.2301C45.7785 26.937 45.8497 26.6691 45.992 26.4263C46.1344 26.1836 46.3311 25.9952 46.5864 25.8529C46.8418 25.7147 47.1223 25.6436 47.4195 25.6436C47.7376 25.6436 48.0348 25.7231 48.3153 25.8821C48.5916 26.0412 48.8846 26.3301 49.1944 26.7529L48.6418 27.1715C48.3864 26.8324 48.1688 26.6105 47.993 26.5059C47.8171 26.4012 47.6162 26.3468 47.4069 26.3468C47.1348 26.3468 46.913 26.4305 46.7371 26.5938C46.5655 26.7612 46.4776 26.9622 46.4776 27.2049C46.4776 27.3515 46.5069 27.4938 46.5697 27.6319C46.6325 27.7701 46.7413 27.9208 46.9046 28.084C46.9925 28.1677 47.2855 28.3938 47.7795 28.758C48.3655 29.1891 48.7674 29.5742 48.9851 29.9133C49.2027 30.2524 49.3116 30.5873 49.3116 30.9305C49.3116 31.4203 49.1274 31.8473 48.7548 32.2073C48.3823 32.5673 47.9302 32.7515 47.3944 32.7515C46.9841 32.7515 46.6116 32.6426 46.2767 32.4208C45.9418 32.2031 45.6362 31.8347 45.3516 31.3198V31.3156Z" fill="white"/>
<path d="M52.2124 25.8108H56.0887V26.4722H52.8905V28.5904H56.0636V29.2518H52.8905V31.9099H56.0636V32.5713H52.2166V25.8066L52.2124 25.8108Z" fill="white"/>
<path d="M58.7305 25.8108H62.6067V26.4722H59.4086V28.5904H62.5816V29.2518H59.4086V31.9099H62.5816V32.5713H58.7347V25.8066L58.7305 25.8108Z" fill="white"/>
<path d="M65.2437 32.5762V25.8115H66.646C67.659 25.8115 68.3916 25.8911 68.8478 26.0543C69.505 26.2845 70.0157 26.6822 70.3841 27.2515C70.7525 27.8166 70.9367 28.4948 70.9367 29.2776C70.9367 29.9557 70.7902 30.5501 70.4971 31.065C70.2041 31.5799 69.8232 31.9608 69.3585 32.2036C68.8897 32.4506 68.2367 32.572 67.3953 32.572H65.2437V32.5762ZM65.8925 31.9357H66.6753C67.6088 31.9357 68.2576 31.8771 68.6218 31.7599C69.1325 31.5966 69.5302 31.2952 69.8232 30.8683C70.1162 30.4371 70.2585 29.9138 70.2585 29.2901C70.2585 28.6664 70.0995 28.0804 69.7855 27.6199C69.4716 27.1552 69.0278 26.8413 68.4669 26.6697C68.0441 26.5399 67.345 26.4771 66.3739 26.4771H65.8967V31.9399L65.8925 31.9357Z" fill="white"/>
<path d="M78.5176 24.8105H79.1748V33.572H78.5176V24.8105Z" fill="white"/>
<path d="M86.396 31.3156L86.9695 30.9724C87.3755 31.7175 87.8402 32.0901 88.3718 32.0901C88.5978 32.0901 88.8113 32.0356 89.0123 31.931C89.2132 31.8263 89.3639 31.684 89.4686 31.504C89.5732 31.324 89.6234 31.1398 89.6234 30.9389C89.6234 30.7129 89.5481 30.491 89.3932 30.2733C89.1797 29.9719 88.7946 29.6119 88.2337 29.1891C87.6685 28.7622 87.3169 28.4566 87.183 28.264C86.9444 27.9459 86.823 27.5984 86.823 27.2301C86.823 26.937 86.8941 26.6691 87.0365 26.4263C87.1788 26.1836 87.3755 25.9952 87.6309 25.8529C87.8862 25.7147 88.1667 25.6436 88.4639 25.6436C88.782 25.6436 89.0792 25.7231 89.3597 25.8821C89.636 26.0412 89.929 26.3301 90.2388 26.7529L89.6862 27.1715C89.4309 26.8324 89.2132 26.6105 89.0374 26.5059C88.8574 26.397 88.6648 26.3468 88.4513 26.3468C88.1792 26.3468 87.9574 26.4305 87.7816 26.5938C87.6099 26.7612 87.522 26.9622 87.522 27.2049C87.522 27.3515 87.5513 27.4938 87.6141 27.6319C87.6769 27.7701 87.7858 27.9208 87.949 28.084C88.0369 28.1677 88.3299 28.3938 88.8239 28.758C89.4099 29.1891 89.8118 29.5742 90.0295 29.9133C90.2472 30.2524 90.356 30.5873 90.356 30.9305C90.356 31.4203 90.1676 31.8473 89.7992 32.2073C89.4267 32.5673 88.9746 32.7515 88.4388 32.7515C88.0285 32.7515 87.656 32.6426 87.3211 32.4208C86.9862 32.2031 86.6806 31.8347 86.396 31.3198V31.3156Z" fill="white"/>
<path d="M99.5526 27.0665L99.021 27.4768C98.728 27.0917 98.3722 26.8028 97.9619 26.6061C97.5475 26.4093 97.0954 26.3089 96.6015 26.3089C96.0615 26.3089 95.5633 26.4386 95.1029 26.6982C94.6424 26.9577 94.2866 27.3051 94.0354 27.7405C93.7801 28.1758 93.6545 28.6698 93.6545 29.214C93.6545 30.0386 93.935 30.7251 94.5043 31.2777C95.0694 31.8303 95.781 32.1065 96.6433 32.1065C97.5894 32.1065 98.3847 31.734 99.021 30.993L99.5526 31.3991C99.2136 31.8303 98.795 32.161 98.2926 32.3954C97.7861 32.6298 97.2252 32.747 96.6015 32.747C95.4168 32.747 94.4833 32.3535 93.801 31.5665C93.2275 30.901 92.9429 30.0972 92.9429 29.1596C92.9429 28.1675 93.2903 27.3344 93.9852 26.6605C94.6801 25.9824 95.5508 25.6475 96.5931 25.6475C97.2252 25.6475 97.7945 25.773 98.3052 26.02C98.8159 26.2712 99.2303 26.6186 99.5568 27.0707L99.5526 27.0665Z" fill="white"/>
<path d="M105.141 25.8115L108.293 32.5762H107.564L106.501 30.3492H103.588L102.533 32.5762H101.779L104.973 25.8115H105.141ZM105.057 27.2473L103.897 29.6962H106.208L105.057 27.2473Z" fill="white"/>
<path d="M110.809 25.8115H111.483V31.9232H114.087V32.5762H110.809V25.8115Z" fill="white"/>
<path d="M116.632 25.8108H120.508V26.4722H117.31V28.5904H120.483V29.2518H117.31V31.9099H120.483V32.5713H116.636V25.8066L116.632 25.8108Z" fill="white"/>
<path d="M127.946 24.8105H128.604V33.572H127.946V24.8105Z" fill="white"/>
<path d="M135.825 31.3156L136.398 30.9724C136.804 31.7175 137.269 32.0901 137.801 32.0901C138.027 32.0901 138.24 32.0356 138.441 31.931C138.642 31.8263 138.793 31.684 138.897 31.504C139.002 31.324 139.052 31.1398 139.052 30.9389C139.052 30.7129 138.977 30.491 138.822 30.2733C138.608 29.9719 138.223 29.6119 137.662 29.1891C137.097 28.7622 136.746 28.4566 136.612 28.264C136.373 27.9459 136.252 27.5984 136.252 27.2301C136.252 26.937 136.323 26.6691 136.465 26.4263C136.607 26.1836 136.804 25.9952 137.06 25.8529C137.315 25.7147 137.595 25.6436 137.893 25.6436C138.211 25.6436 138.508 25.7231 138.788 25.8821C139.065 26.0412 139.358 26.3301 139.667 26.7529L139.115 27.1715C138.86 26.8324 138.642 26.6105 138.466 26.5059C138.286 26.397 138.094 26.3468 137.88 26.3468C137.608 26.3468 137.386 26.4305 137.21 26.5938C137.039 26.7612 136.951 26.9622 136.951 27.2049C136.951 27.3515 136.98 27.4938 137.043 27.6319C137.106 27.7701 137.214 27.9208 137.378 28.084C137.466 28.1677 137.759 28.3938 138.253 28.758C138.839 29.1891 139.241 29.5742 139.458 29.9133C139.676 30.2524 139.785 30.5873 139.785 30.9305C139.785 31.4203 139.596 31.8473 139.228 32.2073C138.855 32.5673 138.403 32.7515 137.867 32.7515C137.457 32.7515 137.085 32.6426 136.75 32.4208C136.415 32.2031 136.109 31.8347 135.825 31.3198V31.3156Z" fill="white"/>
<path d="M142.702 25.8115H143.376V29.8929C143.376 30.3785 143.385 30.6799 143.405 30.7971C143.439 31.065 143.519 31.2869 143.64 31.4669C143.761 31.6469 143.95 31.7976 144.205 31.919C144.46 32.0404 144.716 32.099 144.971 32.099C145.193 32.099 145.411 32.0529 145.616 31.9566C145.821 31.8604 145.992 31.7306 146.131 31.5631C146.269 31.3957 146.369 31.1906 146.432 30.952C146.478 30.7804 146.499 30.4287 146.499 29.8929V25.8115H147.173V29.8929C147.173 30.4957 147.114 30.9855 146.997 31.358C146.88 31.7306 146.645 32.0529 146.29 32.3292C145.938 32.6055 145.507 32.7436 145.005 32.7436C144.46 32.7436 143.992 32.6139 143.602 32.3543C143.213 32.0948 142.953 31.7473 142.819 31.3204C142.736 31.0566 142.694 30.5836 142.694 29.8971V25.8157L142.702 25.8115Z" fill="white"/>
<path d="M156.613 27.0665L156.081 27.4768C155.788 27.0917 155.432 26.8028 155.022 26.6061C154.608 26.4093 154.155 26.3089 153.662 26.3089C153.122 26.3089 152.623 26.4386 152.163 26.6982C151.702 26.9577 151.347 27.3051 151.095 27.7405C150.84 28.1758 150.715 28.6698 150.715 29.214C150.715 30.0386 150.995 30.7251 151.564 31.2777C152.129 31.8303 152.841 32.1065 153.703 32.1065C154.649 32.1065 155.445 31.734 156.081 30.993L156.613 31.3991C156.274 31.8303 155.855 32.161 155.353 32.3954C154.846 32.6298 154.285 32.747 153.662 32.747C152.477 32.747 151.543 32.3535 150.861 31.5665C150.288 30.901 150.003 30.0972 150.003 29.1596C150.003 28.1675 150.35 27.3344 151.045 26.6605C151.74 25.9824 152.611 25.6475 153.653 25.6475C154.285 25.6475 154.855 25.773 155.365 26.02C155.876 26.2712 156.29 26.6186 156.617 27.0707L156.613 27.0665Z" fill="white"/>
<path d="M165.738 27.0665L165.207 27.4768C164.914 27.0917 164.558 26.8028 164.147 26.6061C163.733 26.4093 163.281 26.3089 162.787 26.3089C162.247 26.3089 161.749 26.4386 161.288 26.6982C160.828 26.9577 160.472 27.3051 160.221 27.7405C159.966 28.1758 159.84 28.6698 159.84 29.214C159.84 30.0386 160.121 30.7251 160.69 31.2777C161.255 31.8303 161.967 32.1065 162.829 32.1065C163.775 32.1065 164.57 31.734 165.207 30.993L165.738 31.3991C165.399 31.8303 164.981 32.161 164.478 32.3954C163.972 32.6298 163.411 32.747 162.787 32.747C161.602 32.747 160.669 32.3535 159.987 31.5665C159.413 30.901 159.128 30.0972 159.128 29.1596C159.128 28.1675 159.476 27.3344 160.171 26.6605C160.866 25.9824 161.736 25.6475 162.779 25.6475C163.411 25.6475 163.98 25.773 164.491 26.02C165.001 26.2712 165.416 26.6186 165.742 27.0707L165.738 27.0665Z" fill="white"/>
<path d="M168.563 25.8108H172.44V26.4722H169.242V28.5904H172.415V29.2518H169.242V31.9099H172.415V32.5713H168.568V25.8066L168.563 25.8108Z" fill="white"/>
<path d="M175.082 25.8108H178.958V26.4722H175.76V28.5904H178.933V29.2518H175.76V31.9099H178.933V32.5713H175.086V25.8066L175.082 25.8108Z" fill="white"/>
<path d="M181.595 32.5762V25.8115H182.997C184.01 25.8115 184.743 25.8911 185.199 26.0543C185.856 26.2845 186.367 26.6822 186.735 27.2515C187.104 27.8166 187.288 28.4948 187.288 29.2776C187.288 29.9557 187.142 30.5501 186.848 31.065C186.555 31.5799 186.175 31.9608 185.71 32.2036C185.241 32.4506 184.588 32.572 183.742 32.572H181.591L181.595 32.5762ZM182.244 31.9357H183.027C183.96 31.9357 184.609 31.8771 184.973 31.7599C185.484 31.5966 185.882 31.2952 186.175 30.8683C186.468 30.4371 186.61 29.9138 186.61 29.2901C186.61 28.6664 186.451 28.0804 186.137 27.6199C185.823 27.1552 185.379 26.8413 184.818 26.6697C184.395 26.5399 183.696 26.4771 182.725 26.4771H182.248V31.9399L182.244 31.9357Z" fill="white"/>
<path d="M21.3908 17.498H15.8149V23.0739H21.3908V17.498Z" fill="white"/>
<path d="M15.8192 23.0781H13.4248V25.4725H15.8192V23.0781Z" fill="white"/>
<path d="M25.0953 13.793H21.3906V17.4976H25.0953V13.793Z" fill="white"/>
<path d="M19.5908 31.1691C9.5108 31.1691 4.96056 27.0501 4.96056 17.9998C4.96056 8.9496 9.07545 5.09007 18.628 4.84309V0.133789C6.39219 0.468673 0.24707 6.57193 0.24707 17.9998C0.24707 29.4277 7.23777 35.8826 19.6996 35.8826H21.395V31.1691H19.5908Z" fill="white"/>
<path d="M29.453 4.83068V23.0735H34.1456L34.1121 0.117188H25.4219V4.83068H29.453Z" fill="white"/>
<path d="M21.3906 23.0732V31.1691H29.453V31.1356H21.3906V23.0732Z" fill="white"/>
<path d="M21.3906 23.0732V31.1314H29.4488V23.0732H21.3906ZM28.5111 30.3946H24.3795V26.263H28.5111V30.3946Z" fill="white"/>
</g>
<defs>
<clipPath id="clip0_911_5758">
<rect width="187.535" height="36" fill="white"/>
</clipPath>
</defs>
</svg>
