<svg width="49" height="48" viewBox="0 0 49 48" fill="none" xmlns="http://www.w3.org/2000/svg">
<path d="M34.1665 7.12V4C34.1665 3.18 33.4865 2.5 32.6665 2.5C31.8465 2.5 31.1665 3.18 31.1665 4V7H18.1665V4C18.1665 3.18 17.4865 2.5 16.6665 2.5C15.8465 2.5 15.1665 3.18 15.1665 4V7.12C9.76647 7.62 7.14647 10.84 6.74647 15.62C6.70647 16.2 7.18647 16.68 7.74647 16.68H41.5865C42.1665 16.68 42.6465 16.18 42.5865 15.62C42.1865 10.84 39.5665 7.62 34.1665 7.12Z" fill="#351C24"/>
<path d="M38.6665 30C34.2465 30 30.6665 33.58 30.6665 38C30.6665 39.5 31.0865 40.92 31.8265 42.12C33.2065 44.44 35.7465 46 38.6665 46C41.5865 46 44.1265 44.44 45.5065 42.12C46.2465 40.92 46.6665 39.5 46.6665 38C46.6665 33.58 43.0865 30 38.6665 30ZM42.8065 37.14L38.5465 41.08C38.2665 41.34 37.8865 41.48 37.5265 41.48C37.1465 41.48 36.7665 41.34 36.4665 41.04L34.4865 39.06C33.9065 38.48 33.9065 37.52 34.4865 36.94C35.0665 36.36 36.0265 36.36 36.6065 36.94L37.5665 37.9L40.7665 34.94C41.3665 34.38 42.3265 34.42 42.8865 35.02C43.4465 35.62 43.4065 36.56 42.8065 37.14Z" fill="#351C24"/>
<path d="M40.6665 19.6801H8.6665C7.5665 19.6801 6.6665 20.5801 6.6665 21.6801V34.0001C6.6665 40.0001 9.6665 44.0001 16.6665 44.0001H26.5265C27.9065 44.0001 28.8665 42.6601 28.4265 41.3601C28.0265 40.2001 27.6865 38.9201 27.6865 38.0001C27.6865 31.9401 32.6265 27.0001 38.6865 27.0001C39.2665 27.0001 39.8465 27.0401 40.4065 27.1401C41.6065 27.3201 42.6865 26.3801 42.6865 25.1801V21.7001C42.6665 20.5801 41.7665 19.6801 40.6665 19.6801ZM19.0865 36.4201C18.7065 36.7801 18.1865 37.0001 17.6665 37.0001C17.1465 37.0001 16.6265 36.7801 16.2465 36.4201C15.8865 36.0401 15.6665 35.5201 15.6665 35.0001C15.6665 34.4801 15.8865 33.9601 16.2465 33.5801C16.4465 33.4001 16.6465 33.2601 16.9065 33.1601C17.6465 32.8401 18.5265 33.0201 19.0865 33.5801C19.4465 33.9601 19.6665 34.4801 19.6665 35.0001C19.6665 35.5201 19.4465 36.0401 19.0865 36.4201ZM19.0865 29.4201C18.9865 29.5001 18.8865 29.5801 18.7865 29.6601C18.6665 29.7401 18.5465 29.8001 18.4265 29.8401C18.3065 29.9001 18.1865 29.9401 18.0665 29.9601C17.9265 29.9801 17.7865 30.0001 17.6665 30.0001C17.1465 30.0001 16.6265 29.7801 16.2465 29.4201C15.8865 29.0401 15.6665 28.5201 15.6665 28.0001C15.6665 27.4801 15.8865 26.9601 16.2465 26.5801C16.7065 26.1201 17.4065 25.9001 18.0665 26.0401C18.1865 26.0601 18.3065 26.1001 18.4265 26.1601C18.5465 26.2001 18.6665 26.2601 18.7865 26.3401C18.8865 26.4201 18.9865 26.5001 19.0865 26.5801C19.4465 26.9601 19.6665 27.4801 19.6665 28.0001C19.6665 28.5201 19.4465 29.0401 19.0865 29.4201ZM26.0865 29.4201C25.7065 29.7801 25.1865 30.0001 24.6665 30.0001C24.1465 30.0001 23.6265 29.7801 23.2465 29.4201C22.8865 29.0401 22.6665 28.5201 22.6665 28.0001C22.6665 27.4801 22.8865 26.9601 23.2465 26.5801C24.0065 25.8401 25.3465 25.8401 26.0865 26.5801C26.4465 26.9601 26.6665 27.4801 26.6665 28.0001C26.6665 28.5201 26.4465 29.0401 26.0865 29.4201Z" fill="#351C24"/>
</svg>
