<svg width="48" height="49" viewBox="0 0 48 49" fill="none" xmlns="http://www.w3.org/2000/svg">
<path d="M42.06 44.6001H27.98C27.14 44.6001 26.48 43.9201 26.48 43.1001C26.48 42.2801 27.16 41.6001 27.98 41.6001H42.06C42.9 41.6001 43.56 42.2801 43.56 43.1001C43.56 43.9201 42.9 44.6001 42.06 44.6001Z" fill="#351C24"/>
<path d="M27.28 33.9803C28.06 34.7603 28.06 36.0203 27.28 36.8203L21.32 42.7803C19.1 45.0003 15.54 45.1203 13.18 43.1403C13.04 43.0203 12.92 42.9003 12.8 42.7803L11.06 41.0403L7.48 37.4603L5.76 35.7403C5.62 35.6003 5.5 35.4603 5.38 35.3203C3.42 32.9603 3.56 29.4403 5.76 27.2403L11.72 21.2803C12.5 20.5003 13.76 20.5003 14.54 21.2803L27.28 33.9803Z" fill="#351C24"/>
<path d="M42.2402 21.88L32.2402 31.88C31.4602 32.66 30.2002 32.66 29.4202 31.88L16.6802 19.18C15.9002 18.4 15.9002 17.14 16.6802 16.34L26.6802 6.35998C29.0202 4.01998 32.8602 4.01998 35.2002 6.35998L42.2402 13.38C44.5802 15.72 44.5802 19.54 42.2402 21.88Z" fill="#351C24"/>
</svg>
