<svg width="48" height="49" viewBox="0 0 48 49" fill="none" xmlns="http://www.w3.org/2000/svg">
<path d="M31.56 4.6001H16.44C8.88 4.6001 7 6.6201 7 14.6801V37.2001C7 42.5201 9.92 43.7801 13.46 39.9801L13.48 39.9601C15.12 38.2201 17.62 38.3601 19.04 40.2601L21.06 42.9601C22.68 45.1001 25.3 45.1001 26.92 42.9601L28.94 40.2601C30.38 38.3401 32.88 38.2001 34.52 39.9601C38.08 43.7601 40.98 42.5001 40.98 37.1801V14.6801C41 6.6201 39.12 4.6001 31.56 4.6001ZM31.32 29.6601C31.02 29.9601 30.64 30.1001 30.26 30.1001C29.88 30.1001 29.5 29.9601 29.2 29.6601L27.72 28.1801C26.56 28.9401 25.16 29.4001 23.66 29.4001C19.58 29.4001 16.26 26.0801 16.26 22.0001C16.26 17.9201 19.56 14.6001 23.66 14.6001C27.76 14.6001 31.06 17.9201 31.06 22.0001C31.06 23.5001 30.6 24.9001 29.84 26.0601L31.32 27.5401C31.9 28.1201 31.9 29.0801 31.32 29.6601Z" fill="#351C24"/>
</svg>
