<svg width="48" height="49" viewBox="0 0 48 49" fill="none" xmlns="http://www.w3.org/2000/svg">
<path d="M24 4.6001C12.98 4.6001 4 13.5801 4 24.6001C4 35.6201 12.98 44.6001 24 44.6001C35.02 44.6001 44 35.6201 44 24.6001C44 13.5801 35.02 4.6001 24 4.6001ZM33.56 20.0001L22.22 31.3401C21.94 31.6201 21.56 31.7801 21.16 31.7801C20.76 31.7801 20.38 31.6201 20.1 31.3401L14.44 25.6801C13.86 25.1001 13.86 24.1401 14.44 23.5601C15.02 22.9801 15.98 22.9801 16.56 23.5601L21.16 28.1601L31.44 17.8801C32.02 17.3001 32.98 17.3001 33.56 17.8801C34.14 18.4601 34.14 19.4001 33.56 20.0001Z" fill="#351C24"/>
</svg>
