<svg width="48" height="48" viewBox="0 0 48 48" fill="none" xmlns="http://www.w3.org/2000/svg">
<path d="M34.78 31.34L26.7 24H21.28L13.2 31.34C10.94 33.38 10.2 36.52 11.3 39.36C12.4 42.18 15.08 44 18.1 44H29.88C32.92 44 35.58 42.18 36.68 39.36C37.78 36.52 37.04 33.38 34.78 31.34ZM27.64 36.28H20.36C19.6 36.28 19 35.66 19 34.92C19 34.18 19.62 33.56 20.36 33.56H27.64C28.4 33.56 29 34.18 29 34.92C29 35.66 28.38 36.28 27.64 36.28Z" fill="currentColor"/>
<path d="M36.6998 8.64C35.5998 5.82 32.9198 4 29.8998 4H18.0998C15.0798 4 12.3998 5.82 11.2998 8.64C10.2198 11.48 10.9598 14.62 13.2198 16.66L21.2998 24H26.7198L34.7998 16.66C37.0398 14.62 37.7798 11.48 36.6998 8.64ZM27.6398 14.46H20.3598C19.5998 14.46 18.9998 13.84 18.9998 13.1C18.9998 12.36 19.6198 11.74 20.3598 11.74H27.6398C28.3998 11.74 28.9998 12.36 28.9998 13.1C28.9998 13.84 28.3798 14.46 27.6398 14.46Z" fill="currentColor"/>
</svg>
