<svg width="49" height="48" viewBox="0 0 49 48" fill="none" xmlns="http://www.w3.org/2000/svg">
<path d="M30.1133 6.9H18.5533C17.7533 6.9 17.1133 6.26 17.1133 5.46C17.1133 4.66 17.7533 4 18.5533 4H30.1133C30.9133 4 31.5533 4.64 31.5533 5.44C31.5533 6.24 30.9133 6.9 30.1133 6.9Z" fill="#351C24"/>
<path d="M40.2735 30H34.3935C31.8535 30 30.3335 31.52 30.3335 34.06V39.94C30.3335 42.48 31.8535 44 34.3935 44H40.2735C42.8135 44 44.3335 42.48 44.3335 39.94V34.06C44.3335 31.52 42.8135 30 40.2735 30ZM39.7135 38.92L37.3535 40.28C36.8735 40.56 36.3935 40.7 35.9535 40.7C35.6135 40.7 35.3135 40.62 35.0335 40.46C34.3935 40.08 34.0335 39.34 34.0335 38.36V35.64C34.0335 34.66 34.3935 33.92 35.0335 33.54C35.6735 33.16 36.4935 33.24 37.3535 33.72L39.7135 35.08C40.5535 35.58 41.0335 36.26 41.0335 37C41.0335 37.74 40.5735 38.42 39.7135 38.92Z" fill="#351C24"/>
<path d="M28.3337 39.94V34.0601C28.3337 30.4401 30.7737 28 34.3937 28H40.2737C40.7337 28 41.1737 28.04 41.5937 28.12C41.6337 27.64 41.6737 27.16 41.6737 26.66C41.6737 17.08 33.8937 9.30005 24.3337 9.30005C14.7737 9.30005 6.99365 17.08 6.99365 26.66C6.99365 36.2201 14.7737 44 24.3337 44C26.0337 44 27.6537 43.72 29.2137 43.28C28.6537 42.34 28.3337 41.22 28.3337 39.94ZM25.8337 26C25.8337 26.82 25.1537 27.5 24.3337 27.5C23.5137 27.5 22.8337 26.82 22.8337 26V16C22.8337 15.18 23.5137 14.5 24.3337 14.5C25.1537 14.5 25.8337 15.18 25.8337 16V26Z" fill="#351C24"/>
</svg>
